<svg id="Capa_1" data-name="Capa 1" xmlns="http://www.w3.org/2000/svg" viewBox="0 0 121 120"><defs><style>.cls-1{fill:#3fa9f5;}.cls-2{font-size:20.24px;font-family:MyriadPro-Regular, Myriad Pro;}.cls-3{fill:#d40023;}.cls-4{fill:#d40047;}.cls-5,.cls-6{fill:#fff;}.cls-6{stroke:#fff;stroke-miterlimit:10;}</style></defs><title>copos120</title><ellipse id="Fondo_1" class="cls-1" cx="60.5" cy="60" rx="60.5" ry="60"/><text class="cls-2" transform="translate(38 107.94) scale(1.14 1)">GAPI</text><g id="Estrella_1"><path class="cls-3" d="M102.32,87.76,46.26,66.17,33.43,79.67l-5-23.55L5.68,46.79,27.17,34.88l2.11-24L47.54,27.1l24.08-5.48L63.21,40.76Q82.76,64.27,102.32,87.76Z"/><path class="cls-4" d="M29.28,10.92l-1.05,12a.25.25,0,0,0,.23.27h0a.26.26,0,0,0,.25-.23l1-11.58-.47-.41ZM27.42,34.6a.24.24,0,0,0-.25.22v0h0L16.72,40.67a.25.25,0,0,0-.1.34.26.26,0,0,0,.22.13.27.27,0,0,0,.12,0l10.45-5.8a.49.49,0,0,0,.26-.39v-.05a.25.25,0,0,0-.23-.27ZM6.35,46.46a.22.22,0,0,0-.11,0h0l-.56.31h0l10.54,4.32h.09a.24.24,0,0,0,.23-.15.25.25,0,0,0-.14-.33l-9.82-4,0,0a.23.23,0,0,0-.21-.13Zm21.06,8.72a.24.24,0,0,0-.23.15.26.26,0,0,0,.14.33l1.09.44h0l.08.4h0v0h0l0,.15h0l0,.06h0l0,.14h0l0,.07h0v0h0v0h0v0h0v0h0v0h0v0h0v0h0v0h0v0h0v.07h0v0h0l.09.46h0l.07.31h0l1.75,8.27a.25.25,0,0,0,.24.2H31a.25.25,0,0,0,.19-.3L28.94,56a.52.52,0,0,0-.3-.36l-1.13-.47Zm13.21,16.3a.27.27,0,0,0-.18.08l-6.72,7.07-.07-.33a.25.25,0,0,0-.24-.2h0a.25.25,0,0,0-.2.29l.14.67h0l.13.6h0l7.38-7.77a.25.25,0,0,0,0-.35.24.24,0,0,0-.18-.07Zm9.54-4.33a.25.25,0,0,0-.23.16.24.24,0,0,0,.14.32L53.57,69l7.7,3h.09a.25.25,0,0,0,.23-.16.24.24,0,0,0-.14-.32l-11.2-4.31-.09,0Zm22.4,8.63a.26.26,0,0,0-.24.16.25.25,0,0,0,.15.32l1.07.42.75.28h0l9.37,3.61.09,0a.26.26,0,0,0,.24-.16.25.25,0,0,0-.15-.32L74.47,76.5l-1.82-.71ZM95,84.4a.25.25,0,0,0-.23.16.25.25,0,0,0,.14.33l6.5,2.5h0l1,.37h0l-.65-.79h0l-1-1.16-.49-.59-.45-.54a.25.25,0,0,0-.19-.09.23.23,0,0,0-.16.06.25.25,0,0,0,0,.35l1.34,1.6L95,84.42l-.09,0ZM84.21,66.14a.27.27,0,0,0-.16.06.25.25,0,0,0,0,.35l7.68,9.23a.28.28,0,0,0,.19.09.25.25,0,0,0,.19-.41L89.29,72.1l-4.88-5.87a.27.27,0,0,0-.2-.09ZM68.86,47.7a.24.24,0,0,0-.16,0,.24.24,0,0,0,0,.35l7.67,9.23a.26.26,0,0,0,.36,0,.25.25,0,0,0,0-.35l-1.6-1.93-6.08-7.3a.27.27,0,0,0-.19-.08ZM69,26.8a.25.25,0,0,0-.23.15L67,31l-3.05,7a.25.25,0,0,0,.13.33l.1,0a.25.25,0,0,0,.23-.15q1.71-3.9,3.43-7.8l.4-.92,1-2.27a.25.25,0,0,0-.13-.32l-.1,0Zm-3.1-3.86h0L55.32,25.33h-.18l-1,.24a.25.25,0,0,0,.06.49h.06l11.7-2.66a.25.25,0,0,0-.06-.49ZM34.45,15.58a.25.25,0,0,0-.19.09.24.24,0,0,0,0,.35l9,8a.23.23,0,0,0,.16.06.27.27,0,0,0,.19-.08.26.26,0,0,0,0-.36l-9-8a.27.27,0,0,0-.17-.06Z"/></g><g id="Cavesa_1"><path class="cls-5" d="M65.16,82.81C49.62,82.81,37,71.07,37,56.64S49.62,30.46,65.16,30.46,93.35,42.21,93.35,56.64,80.7,82.81,65.16,82.81Z"/><path d="M65.16,31c15.27,0,27.69,11.52,27.69,25.68S80.43,82.31,65.16,82.31,37.48,70.8,37.48,56.64,49.9,31,65.16,31m0-1C49.32,30,36.48,41.91,36.48,56.64S49.32,83.31,65.16,83.31,93.85,71.37,93.85,56.64,81,30,65.16,30Z"/></g><ellipse id="Ojo_1_negro" cx="76.24" cy="69.98" rx="5.87" ry="5.72"/><g id="Ojo_rojo_1"><ellipse class="cls-3" cx="76.24" cy="69.98" rx="4.56" ry="4.45"/></g><ellipse id="Punto1" class="cls-6" cx="35.49" cy="69.6" rx="2.82" ry="2.8"/><ellipse id="Punto2" class="cls-6" cx="25.01" cy="45.6" rx="2.82" ry="2.8"/><ellipse id="Punto3" class="cls-6" cx="35.49" cy="24" rx="2.82" ry="2.8"/></svg>